Coordinates
version=1
nRows=6
nColumns=46
inDegrees=yes

Units are S.I. units (second, meters, Newtons, ...)
Angles are in degrees.

endheader
time	pelvis_tilt	pelvis_list	pelvis_rotation	pelvis_tx	pelvis_ty	pelvis_tz	bb_angle	bb_tx	bb_ty	bb_tz	hip_flexion_r	hip_adduction_r	hip_rotation_r	knee_angle_r	knee_angle_r_beta	ankle_angle_r	subtalar_angle_r	mtp_angle_r	crank_angle_r	hip_flexion_l	hip_adduction_l	hip_rotation_l	knee_angle_l	knee_angle_l_beta	ankle_angle_l	subtalar_angle_l	mtp_angle_l	crank_angle_l	lumbar_extension	lumbar_bending	lumbar_rotation	arm_flex_r	arm_add_r	arm_rot_r	elbow_flex_r	pro_sup_r	wrist_flex_r	wrist_dev_r	arm_flex_l	arm_add_l	arm_rot_l	elbow_flex_l	pro_sup_l	wrist_flex_l	wrist_dev_l
      2.50000000	    -25.68520280	     -1.38721451	     -7.80661833	      0.40061524	      1.16809327	     -0.22212425	      0.00000000	      0.50000000	      0.00000000	      0.25000000	     61.16997505	      2.86191843	      3.14018139	     62.78275591	      1.09576580	     13.80298231	     -4.51752742	      0.00000000	      0.00000000	     45.14809552	     -8.49846638	      3.02906171	     65.28948897	      1.13951655	    -29.16116761	     -7.59321608	      0.00000000	      0.00000000	    -59.40628834	      2.94561230	     -4.84429736	     75.79484788	    -21.27669888	     62.88115791	     78.96139622	     58.53859440	      0.00000000	      0.00000000	     28.07704269	    -28.29083686	     -7.18802790	     95.66546057	     51.74417725	      0.00000000	      0.00000000
      2.50500000	    -25.62761719	     -0.91586283	     -7.81117553	      0.40007769	      1.16628119	     -0.22159696	      0.00000000	      0.50000000	      0.00000000	      0.25000000	     60.14060232	      2.56036772	      3.38278237	     60.61423567	      1.05791799	     12.34734829	     -4.85726560	      0.00000000	      0.00000000	     46.27061801	     -8.28590532	      2.81357464	     68.10082085	      1.18858355	    -27.24196637	     -7.17807916	      0.00000000	      0.00000000	    -59.15942380	      2.63948275	     -5.50654728	     75.57215315	    -20.92051423	     63.09228432	     78.63476183	     58.55512737	      0.00000000	      0.00000000	     27.73306495	    -28.57725749	     -7.27546559	     95.74745332	     51.78010706	      0.00000000	      0.00000000
      2.51000000	    -25.41061024	     -0.13257852	     -7.69458938	      0.39980708	      1.16469250	     -0.22173743	      0.00000000	      0.50000000	      0.00000000	      0.25000000	     58.93821335	      1.86592614	      3.85166565	     58.48140647	      1.02069309	     11.20111567	     -4.63487121	      0.00000000	      0.00000000	     47.08953204	     -7.53221480	      2.49187937	     70.62508007	      1.23264018	    -25.62998955	     -7.66562331	      0.00000000	      0.00000000	    -58.99281270	      2.21734578	     -6.30858981	     75.29965111	    -20.90239632	     63.23348155	     78.50074115	     58.56696729	      0.00000000	      0.00000000	     27.63438040	    -28.56139521	     -7.39723915	     95.71790108	     51.77314372	      0.00000000	      0.00000000
      2.51500000	    -25.32690115	      0.35638864	     -7.60423240	      0.39927378	      1.16243011	     -0.22117053	      0.00000000	      0.50000000	      0.00000000	      0.25000000	     57.80718569	      1.53464885	      4.22068784	     56.36734297	      0.98379573	      9.73433507	     -5.05647254	      0.00000000	      0.00000000	     48.07075882	     -7.24999510	      2.32053992	     73.26110794	      1.27864755	    -23.31193571	     -7.16427283	      0.00000000	      0.00000000	    -58.61398539	      2.04965101	     -8.04995548	     75.40676617	    -18.65057820	     63.70521044	     76.22251624	     58.46544428	      0.00000000	      0.00000000	     25.98009362	    -28.78561379	     -9.92249712	     96.55746448	     51.85552351	      0.00000000	      0.00000000
      2.52000000	    -25.18709643	      0.92822014	     -7.35740400	      0.39877606	      1.16034218	     -0.22119409	      0.00000000	      0.50000000	      0.00000000	      0.25000000	     56.56034403	      0.96102127	      4.62198947	     54.21912471	      0.94630224	      8.57871194	     -5.31081296	      0.00000000	      0.00000000	     49.12335696	     -6.66042140	      2.28919038	     75.88916538	      1.32451580	    -21.32446684	     -6.88819208	      0.00000000	      0.00000000	    -58.35103828	      1.78865991	     -8.98835695	     75.19923171	    -18.33604963	     63.83270479	     75.90688927	     58.47363948	      0.00000000	      0.00000000	     25.79078249	    -29.05602552	     -9.39271836	     96.93996419	     52.00125667	      0.00000000	      0.00000000
      2.52500000	    -25.01182269	      1.65425578	     -7.05606195	      0.39825593	      1.15822614	     -0.22132397	      0.00000000	      0.50000000	      0.00000000	      0.25000000	     55.27302728	      0.22065797	      5.18330089	     52.11187615	      0.90952382	      7.37041963	     -4.90221532	      0.00000000	      0.00000000	     50.21497370	     -5.79230309	      2.17327676	     78.45326152	      1.36926772	    -19.87305927	     -7.42264890	      0.00000000	      0.00000000	    -58.07088476	      1.42915029	     -9.94064648	     74.96462514	    -18.23316822	     63.90392790	     75.79389170	     58.47819955	      0.00000000	      0.00000000	     25.75978200	    -29.02302036	     -9.24737420	     96.95058185	     52.02536392	      0.00000000	      0.00000000
